<svg width="512" height="512" id="hexatar-preview" version="1.1" xmlns="http://www.w3.org/2000/svg" xmlns:xlink="http://www.w3.org/1999/xlink" x="0px" y="0px" viewBox="0 0 512 512" style="enable-background:new 0 0 512 512;" xml:space="preserve">
    <g id="hexatar-background"><g class="hexatar-base">
		<rect class="col-obj" x="-0.003" y="0.002" style="fill: rgb(227, 220, 199);" width="512" height="512"></rect>
		<path class="shadow-obj" style="opacity: 0.9; fill: rgb(210, 199, 165);" d="M103.44,134.293c17.013,0,30.854-13.836,30.854-30.843 c0-17.013-13.841-30.854-30.854-30.854c-17.012,0-30.853,13.841-30.853,30.854C72.587,120.456,86.428,134.293,103.44,134.293z M103.44,86.595c9.293,0,16.854,7.561,16.854,16.854c0,9.288-7.561,16.843-16.854,16.843s-16.853-7.556-16.853-16.843 C86.587,94.156,94.147,86.595,103.44,86.595z M94.113,303.577c27.02,0,49.002-21.982,49.002-49.002 c0-27.021-21.982-49.005-49.002-49.005S45.11,227.553,45.11,254.574C45.11,281.594,67.093,303.577,94.113,303.577z M94.113,219.569c19.3,0,35.002,15.703,35.002,35.005c0,19.3-15.702,35.002-35.002,35.002S59.11,273.875,59.11,254.574 C59.11,235.272,74.813,219.569,94.113,219.569z M255.998,126.237c13.601,0,24.665-11.061,24.665-24.657 c0-13.601-11.064-24.665-24.665-24.665c-13.6,0-24.665,11.064-24.665,24.665C231.333,115.176,242.398,126.237,255.998,126.237z M255.998,86.915c8.086,0,14.665,6.579,14.665,14.665c0,8.082-6.579,14.657-14.665,14.657c-8.086,0-14.665-6.575-14.665-14.657 C241.333,93.493,247.912,86.915,255.998,86.915z M103.44,159.395c30.851,0,55.949-25.099,55.949-55.949 c0-30.853-25.099-55.953-55.949-55.953s-55.949,25.1-55.949,55.953C47.491,134.297,72.589,159.395,103.44,159.395z M103.44,57.493 c25.336,0,45.949,20.614,45.949,45.953c0,25.336-20.613,45.949-45.949,45.949s-45.949-20.613-45.949-45.949 C57.491,78.108,78.104,57.493,103.44,57.493z M255.998,150.579c27.02,0,49.003-21.982,49.003-49.002 c0-27.021-21.982-49.005-49.003-49.005c-27.02,0-49.002,21.984-49.002,49.005C206.995,128.597,228.978,150.579,255.998,150.579z M255.998,66.572c19.301,0,35.003,15.703,35.003,35.005c0,19.3-15.702,35.002-35.003,35.002c-19.3,0-35.002-15.702-35.002-35.002 C220.995,82.275,236.697,66.572,255.998,66.572z M94.113,279.234c13.6,0,24.665-11.061,24.665-24.657 c0-13.601-11.064-24.665-24.665-24.665s-24.665,11.064-24.665,24.665C69.448,268.174,80.513,279.234,94.113,279.234z M94.113,239.912c8.086,0,14.665,6.579,14.665,14.665c0,8.082-6.579,14.657-14.665,14.657s-14.665-6.575-14.665-14.657 C79.448,246.491,86.027,239.912,94.113,239.912z M418.995,229.912c-13.6,0-24.664,11.064-24.664,24.665 c0,13.596,11.064,24.657,24.664,24.657c13.601,0,24.665-11.061,24.665-24.657C443.66,240.977,432.595,229.912,418.995,229.912z M418.995,269.234c-8.086,0-14.664-6.575-14.664-14.657c0-8.086,6.578-14.665,14.664-14.665s14.665,6.579,14.665,14.665 C433.66,262.659,427.081,269.234,418.995,269.234z M418.995,205.569c-27.02,0-49.002,21.984-49.002,49.005 c0,27.02,21.982,49.002,49.002,49.002c27.021,0,49.003-21.982,49.003-49.002C467.998,227.553,446.015,205.569,418.995,205.569z M418.995,289.577c-19.3,0-35.002-15.702-35.002-35.002c0-19.302,15.702-35.005,35.002-35.005 c19.301,0,35.003,15.703,35.003,35.005C453.998,273.875,438.296,289.577,418.995,289.577z M419.001,134.298 c17.007,0,30.843-13.841,30.843-30.854c0-17.012-13.836-30.853-30.843-30.853c-17.014,0-30.854,13.841-30.854,30.853 C388.146,120.457,401.987,134.298,419.001,134.298z M419.001,86.591c9.287,0,16.843,7.56,16.843,16.853 s-7.556,16.854-16.843,16.854c-9.294,0-16.854-7.561-16.854-16.854S409.707,86.591,419.001,86.591z M418.997,159.393 c30.851,0,55.949-25.099,55.949-55.949s-25.099-55.949-55.949-55.949c-30.853,0-55.952,25.099-55.952,55.949 S388.144,159.393,418.997,159.393z M418.997,57.495c25.337,0,45.949,20.613,45.949,45.949s-20.612,45.949-45.949,45.949 c-25.338,0-45.952-20.613-45.952-45.949S393.659,57.495,418.997,57.495z M418.995,388.15c-17.012,0-30.853,13.841-30.853,30.854 c0,17.007,13.841,30.843,30.853,30.843c17.013,0,30.854-13.836,30.854-30.843C449.848,401.991,436.007,388.15,418.995,388.15z M418.995,435.847c-9.293,0-16.853-7.556-16.853-16.843c0-9.294,7.56-16.854,16.853-16.854s16.854,7.561,16.854,16.854 C435.848,428.292,428.288,435.847,418.995,435.847z M418.995,363.049c-30.851,0-55.949,25.1-55.949,55.952 c0,30.851,25.099,55.949,55.949,55.949s55.949-25.099,55.949-55.949C474.944,388.148,449.845,363.049,418.995,363.049z M418.995,464.95c-25.337,0-45.949-20.612-45.949-45.949c0-25.338,20.612-45.952,45.949-45.952s45.949,20.614,45.949,45.952 C464.944,444.338,444.332,464.95,418.995,464.95z M255.998,394.339c-13.6,0-24.665,11.064-24.665,24.665 c0,13.596,11.064,24.656,24.665,24.656c13.601,0,24.665-11.061,24.665-24.656C280.663,405.403,269.598,394.339,255.998,394.339z M255.998,433.66c-8.086,0-14.665-6.575-14.665-14.656c0-8.086,6.579-14.665,14.665-14.665c8.086,0,14.665,6.579,14.665,14.665 C270.663,427.085,264.084,433.66,255.998,433.66z M103.445,388.146c-17.013,0-30.854,13.841-30.854,30.853 c0,17.013,13.841,30.854,30.854,30.854c17.007,0,30.843-13.841,30.843-30.854C134.289,401.987,120.452,388.146,103.445,388.146z M103.445,435.852c-9.293,0-16.854-7.561-16.854-16.854s7.561-16.853,16.854-16.853c9.288,0,16.843,7.56,16.843,16.853 S112.733,435.852,103.445,435.852z M103.442,363.05c-30.853,0-55.953,25.099-55.953,55.949s25.1,55.949,55.953,55.949 c30.851,0,55.949-25.099,55.949-55.949S134.293,363.05,103.442,363.05z M103.442,464.948c-25.338,0-45.953-20.612-45.953-45.949 s20.614-45.949,45.953-45.949c25.336,0,45.949,20.612,45.949,45.949S128.778,464.948,103.442,464.948z M255.998,200.051 c-30.851,0-55.949,25.1-55.949,55.953c0,30.851,25.099,55.95,55.949,55.95s55.949-25.099,55.949-55.95 C311.947,225.151,286.848,200.051,255.998,200.051z M255.998,301.953c-25.336,0-45.949-20.613-45.949-45.95 c0-25.338,20.613-45.953,45.949-45.953c25.337,0,45.949,20.614,45.949,45.953C301.947,281.34,281.335,301.953,255.998,301.953z M255.998,225.153c-17.013,0-30.854,13.841-30.854,30.854c0,17.007,13.841,30.844,30.854,30.844s30.854-13.837,30.854-30.844 C286.851,238.994,273.01,225.153,255.998,225.153z M255.998,272.85c-9.293,0-16.854-7.556-16.854-16.844 c0-9.293,7.561-16.854,16.854-16.854c9.293,0,16.854,7.561,16.854,16.854C272.851,265.295,265.291,272.85,255.998,272.85z M255.998,369.995c-27.02,0-49.002,21.984-49.002,49.006c0,27.02,21.982,49.002,49.002,49.002 c27.02,0,49.003-21.982,49.003-49.002C305.001,391.979,283.018,369.995,255.998,369.995z M255.998,454.003 c-19.3,0-35.002-15.702-35.002-35.002c0-19.303,15.702-35.006,35.002-35.006c19.301,0,35.003,15.703,35.003,35.006 C291.001,438.301,275.298,454.003,255.998,454.003z"></path>
	</g></g>
	<g id="hexatar-hair-rear"><g class="element-rear">
		<path class="col-obj" style="fill: rgb(131, 34, 34);" d="M376.272,493.48H133.7V165.345c0-18.21,14.763-32.973,32.973-32.973h176.626 c18.21,0,32.973,14.763,32.973,32.973V493.48z"></path>
		<path class="shadow-obj" style="opacity: 0.4; fill: rgb(90, 23, 23);" d="M376.272,493.48H255.504V132.372h87.795c18.21,0,32.973,14.763,32.973,32.973 V493.48z"></path>
		<g class="hair-ext" style="display: block;">
			<path class="col-obj" style="fill: rgb(131, 34, 34);" d="M376.227,113.766C374.504,51.103,322.628,0.811,254.986,0.811 c-65.897,0-119.518,50.292-121.242,112.955H133.7v94.64h46.703c20.572,15.373,46.458,24.537,74.583,24.537 s54.01-9.164,74.583-24.537h46.703v-94.64H376.227z"></path>
			<path class="shadow-obj" style="opacity: 0.4; fill: rgb(90, 23, 23);" d="M376.227,113.766C374.509,51.268,321.818,1.081,256.158,0.817l-0.654,207.589 h120.768v-94.64H376.227z"></path>
		</g>
	</g></g>
	<g id="hexatar-bodies">
		<g id="hexatar-body">
			<polygon class="col-obj" style="fill: rgb(245, 208, 195);" points="380.515,465 301,451 301,334 211,334 211,451 131.636,465 94.115,512   418.035,512 "></polygon>
			<polygon class="shadow-obj" style="fill: rgb(238, 174, 151);" points="380.541,465 301,451 301,334 256,334 256,512 418.062,512 "></polygon>
			<polygon id="hexatar-neck-control" class="shadow-obj-2x" style="opacity: 0.5; fill: rgb(231, 140, 107);" points="301.054,387.482 255.998,427.693 210.942,384.615  210.942,333.485 301.054,333.485 "></polygon>
		</g>
		<g id="hexatar-clothes"><g class="hexatar-base">
		<path class="white-obj" style="fill:#FFFFFF;" d="M314.881,511.994H196.874v-35.523c0,0,27.74,14.098,59.004,14.098 s59.004-14.098,59.004-14.098V511.994z"></path>
		<path class="static-obj" style="fill:#E6E6E6;" d="M255.878,496.3c26.818,0,51.14-9.92,59.003-13.479v-6.35 c0,0-27.74,14.099-59.003,14.099c-31.264,0-59.004-14.099-59.004-14.099v6.35C204.737,486.38,229.06,496.3,255.878,496.3z"></path>
		<path class="shadow-obj-2x" style="fill: rgb(51, 51, 51);" d="M329.553,417.167h-28.499v14.956h43.008v-0.447 C344.063,423.663,337.567,417.167,329.553,417.167z M167.935,432.123h43.008v-14.956h-28.052 C174.631,417.167,167.935,423.863,167.935,432.123z"></path>
		<path class="col-obj" style="fill: rgb(102, 102, 102);" d="M168,457.399l-38.757,7.595l-37.084,47h131.175v-80H168V457.399z M382.755,464.994L344,457.399v-25.405h-54.605v80h130.444L382.755,464.994z"></path>
		<path class="shadow-obj" style="opacity: 0.4; fill: rgb(77, 77, 77);" d="M92.159,511.994L140.836,512l-11.37-47.006L92.159,511.994z M383.147,464.994L372.426,512l48.028-0.006L383.147,464.994z"></path>
	</g></g>
	</g>
	<g id="hexatar-faces">
		<g id="hexatar-ears"><g class="hexatar-base">
		<g class="hexatar-ears-right"> 	<polygon class="col-obj" style="fill: rgb(245, 208, 195);" points="172.046,162.41 172.046,244.742 155.235,244.742 115.324,187.268  132.991,162.41"></polygon> 	<polygon class="shadow-obj" style="fill: rgb(238, 174, 151);" points="172.046,173.299 172.046,227.539 157.864,227.539 129.571,189.675  140.913,173.299"></polygon>
		</g>
		<g class="hexatar-ears-left"> 	<polygon class="shadow-obj" style="fill: rgb(238, 174, 151);" points="339.621,244.742 339.621,162.41 377.672,162.41 395.338,187.268  355.428,244.742"></polygon> 	<polygon class="shadow-obj-2x" style="fill: rgb(231, 140, 107);" points="339.621,227.852 339.621,172.985 370.453,172.985 381.925,189.55  353.306,227.852"></polygon>
		</g>
	</g></g>
		<g id="hexatar-face"><g class="hexatar-base">
		<path class="col-obj" style="fill: rgb(245, 208, 195);" d="M255.986,7.171l-102.4,64.185l0,176.961c0,12.41,3.693,24.539,10.608,34.843 l57.554,85.757c7.187,10.709,19.237,17.134,32.135,17.134h2.103h2.089c12.905,0,24.961-6.433,32.147-17.152l57.575-85.892 c6.903-10.298,10.589-22.416,10.589-34.814l0-176.837L255.986,7.171z"></path>
		<path class="shadow-obj" style="fill: rgb(238, 174, 151);" d="M290.221,368.898l57.575-85.892c6.903-10.298,10.589-22.416,10.589-34.814 V71.355L255.986,7.171l-0.001,378.88h2.089C270.98,386.051,283.036,379.618,290.221,368.898z"></path>
	</g></g>
		<g id="hexatar-mouth"><g class="hexatar-base">
		<path class="col-obj" style="fill: rgb(223, 144, 129);" d="M230.274,314.077h52.132l-9.513,12.24c-2.334,3.003-5.924,4.76-9.728,4.76h-13.65 c-3.803,0-7.394-1.757-9.728-4.76L230.274,314.077z"></path>
		<path class="shadow-obj" style="fill: rgb(213, 108, 88);" d="M260.756,306.128l-4.415,2.306l-4.415-2.306 c-2.239-1.169-4.795-1.586-7.29-1.188l-34.767,5.547l21.621,7.264h49.267l22.057-7.264l-34.767-5.547 C265.551,304.542,262.995,304.958,260.756,306.128z"></path>
	</g></g>
		<g id="hexatar-beard"></g>
		<g id="hexatar-mustache"></g>
		<g id="hexatar-nose"><g class="hexatar-base">
		<polygon class="shadow-obj" style="fill: rgb(238, 174, 151);" points="271.118,238.727 261.69,180.775 250.312,180.775 240.883,238.727  236.032,238.727 231.425,252.463 237.569,257.069 240.677,256.214 249.857,266.281 256.001,266.281 262.145,266.281  271.325,256.214 274.433,257.069 280.577,252.463 275.969,238.727"></polygon>
		<polygon class="shadow-obj-2x" style="fill: rgb(231, 140, 107);" points="271.118,238.727 261.69,180.775 256.001,180.775 256.001,266.281  262.145,266.281 271.325,256.214 274.433,257.069 280.577,252.463 275.969,238.727"></polygon>
	</g></g>
		<g id="hexatar-eyeGroup">
			<g id="hexatar-eye"><g class="hexatar-base">
		<g class="hexatar-eye-right">
			<path class="white-obj" style="fill:#FFFFFF;" d="M227.551,193.541c-18.686-5.696-37.597-0.574-37.597-0.574l-1.991,3.383 c0,0,3.108,6.76,14.469,8.109c10.611,0.848,25.694-2.217,25.694-2.217l0.657,0.411c0.492,0.164,0.821,0,0.985-0.411 C229.931,201.75,228.207,194.526,227.551,193.541z"></path>
			<path class="shadow-obj" style="opacity: 0.3; fill: rgb(0, 0, 0);" d="M198.745,191.55c-0.004,0.152-0.031,0.299-0.028,0.453 c0.119,5.425,4.614,9.727,10.039,9.608c5.425-0.119,9.727-4.614,9.608-10.039c-0.001-0.069-0.01-0.135-0.013-0.204 C210.428,190.941,203.893,190.994,198.745,191.55z"></path>
			<path class="col-obj" style="fill: rgb(17, 17, 17);" d="M213.385,191.156c-3.292-0.098-6.299-0.096-9.03,0.004 c-0.041,0.237-0.08,0.474-0.084,0.722c-0.038,2.537,1.988,4.625,4.525,4.663c2.537,0.038,4.625-1.988,4.663-4.525 C213.463,191.725,213.434,191.437,213.385,191.156z"></path>
			<circle class="white-obj" style="fill:#FFFFFF;" cx="204.86" cy="195.019" r="2.857"></circle>
			<path class="hair-col" style="fill: rgb(66, 66, 66);" d="M232.066,195.593l-3.858-2.134c0,0-3.536-6.876-8.454-10.261 c0,0-11.211-0.405-15.761,0.739c7.686-0.397,15.761,0.575,15.761,0.575c1.748,0.89,6.074,7.962,6.074,7.962 s-15.831-5.196-35.219,0.062c-2.785,0.032-7.288-0.351-9.284-2.943c0,0,0.852,4.096,4.814,4.428 c-2.719,0.557-5.554,1.566-10.674,0.542c7.415,4.532,15.229-0.365,15.229-0.365c8.024-2.942,22.607-3.854,36.202-0.082 l3.366,8.291l-1.889-7.799L232.066,195.593z"></path>
			<path style="fill:#F6B6B3;" d="M192.144,201.317c12.716,7.538,32.698,1.5,32.698,1.5S202.399,206,192.144,201.317z"></path>
		</g>
		<g class="hexatar-eye-left">
			<path class="white-obj" style="fill:#FFFFFF;" d="M284.119,202.242c0.164,0.411,0.493,0.575,0.985,0.411l0.657-0.411 c0,0,15.083,3.065,25.694,2.217c11.361-1.349,14.469-8.109,14.469-8.109l-1.991-3.383c0,0-18.911-5.122-37.597,0.574 C285.679,194.526,283.955,201.75,284.119,202.242z"></path>
			<path class="shadow-obj" style="opacity: 0.3; fill: rgb(0, 0, 0);" d="M315.141,191.55c0.004,0.152,0.031,0.299,0.028,0.453 c-0.119,5.425-4.614,9.727-10.039,9.608c-5.425-0.119-9.727-4.614-9.608-10.039c0.001-0.069,0.01-0.135,0.013-0.204 C303.458,190.941,309.993,190.994,315.141,191.55z"></path>
			<path class="col-obj" style="fill: rgb(17, 17, 17);" d="M300.502,191.156c3.292-0.098,6.299-0.096,9.03,0.004 c0.041,0.237,0.08,0.474,0.084,0.722c0.038,2.537-1.988,4.625-4.525,4.663c-2.537,0.038-4.625-1.988-4.663-4.525 C300.423,191.725,300.452,191.437,300.502,191.156z"></path>
			<circle class="white-obj" style="fill:#FFFFFF;" cx="309.027" cy="195.019" r="2.857"></circle>
			<path class="hair-col-2x" style="fill: rgb(40, 40, 40);" d="M338.493,194.563c-5.12,1.024-7.955,0.015-10.674-0.542 c3.962-0.332,4.814-4.428,4.814-4.428c-2.015,2.616-6.581,2.981-9.359,2.941c-19.385-5.255-35.214-0.06-35.214-0.06 s3.484-6.278,6.074-7.962c0,0,8.013-0.767,15.761-0.575c-4.55-1.144-15.761-0.739-15.761-0.739 c-4.919,3.385-8.454,10.261-8.454,10.261l-3.858,2.134l3.694-0.985l-1.889,7.799l3.366-8.291 c13.595-3.773,28.177-2.86,36.202,0.082C323.194,194.197,331.734,198.326,338.493,194.563z"></path>
			<path class="skin-col-2x" style="fill: rgb(224, 106, 63);" d="M289.044,202.817c0,0,19.982,6.038,32.698-1.5 C311.488,206,289.044,202.817,289.044,202.817z"></path>
		</g>
	</g></g>
			<g id="hexatar-eyebrows"><g class="hexatar-base">
		<g class="hexatar-eyebrows-right"> 	<path class="col-obj" style="fill: rgb(66, 66, 66);" d="M177.94,175.889l13.191-2.825l44.548,4.564c3.596,0.426,6.563-2.776,5.866-6.33 l-1.646-8.383l-7.205,3.505l-33.753-6.147C191.657,160.784,184.534,172.754,177.94,175.889L177.94,175.889z"></path>
		</g>
		<g class="hexatar-eyebrows-left"> 	<path class="col-obj" style="fill: rgb(66, 66, 66);" d="M334.84,175.74l-13.188-2.678l-44.552,4.687 c-3.595,0.437-6.573-2.757-5.886-6.312l1.629-8.425l7.21,3.437l33.757-6.215C321.096,160.708,328.229,172.641,334.84,175.74 L334.84,175.74z"></path> 	<path class="shadow-obj" style="opacity: 0.4; fill: rgb(40, 40, 40);" d="M334.84,175.74l-13.188-2.678l-44.552,4.687 c-3.595,0.437-6.573-2.757-5.886-6.312l1.629-8.425l7.21,3.437l33.757-6.215C321.096,160.708,328.229,172.641,334.84,175.74 L334.84,175.74z"></path>
		</g>
	</g></g>	
		</g>
		<g id="hexatar-hair-front"><g class="element-front">
		<g class="hair-ext" style="display: block;">
			<path class="col-obj" style="fill: rgb(131, 34, 34);" d="M376.227,113.766C374.504,51.103,322.628,0.811,254.986,0.811 c-65.897,0-119.518,50.292-121.242,112.955H133.7v94.64h30.395V75.65h185.146v132.756h27.03v-94.64H376.227z"></path>
			<path class="shadow-obj" style="opacity: 0.4; fill: rgb(90, 23, 23);" d="M376.227,113.766C374.508,51.268,321.818,1.081,256.158,0.817l-0.236,74.833 h93.319v132.756h27.03v-94.64H376.227z"></path>
		</g>
		<path class="col-obj" style="fill: rgb(131, 34, 34);" d="M256.107,6.182L153.498,70.315l0,154.796c0,9.978,8.089,18.068,18.068,18.068h0 v-99.491h49.011l7.35-46.231l5.84,46.231h44.612l5.77-46.231l7.281,46.231h48.802v99.491h0c9.978,0,18.068-8.089,18.068-18.068 l0-153.955L256.107,6.182z"></path>
		<path class="shadow-obj" style="opacity: 0.4; fill: rgb(90, 23, 23);" d="M256.107,6.182l-0.12,137.505h22.391l5.77-46.231l7.281,46.231h48.802v99.491 c9.978,0,18.068-8.089,18.068-18.068l0-153.955L256.107,6.182z"></path>
	</g></g>
		<g id="hexatar-hat"></g>
		<g id="hexatar-eyeglasses"><g class="hexatar-base">
		<g class="hexatar-eyeglasses-right">
			<path class="col-obj" style="fill: rgb(33, 33, 33);" d="M256,184.021c0,0-10.634-3.843-15.13-5.587 c-10.922-4.235-21.742-6.745-33.514-6.454c-10.026,0.247-22.285,0.741-31.418,5.432c-3.512,1.803-13.748,2.419-13.748,2.419 c-2.006,1.269-1.898,8.084,0.002,11.347c0,0,6.322,1.24,6.322,1.241c1.51,11.972,2.523,24.656,11.962,33.359 c9.784,9.021,24.358,11.927,37.041,8.269c15.398-4.441,21.375-16.572,26.845-30.556C248.473,193.33,256,194.52,256,194.52 S256,184.04,256,184.021z M167.995,187.696h-3.123c-0.387,0-0.704-0.317-0.704-0.704c0-0.387,0.317-0.704,0.704-0.704h3.123 c0.387,0,0.704,0.317,0.704,0.704C168.698,187.379,168.382,187.696,167.995,187.696z M167.995,183.297h-3.123 c-0.387,0-0.704-0.317-0.704-0.704s0.317-0.704,0.704-0.704h3.123c0.387,0,0.704,0.317,0.704,0.704 S168.382,183.297,167.995,183.297z M223.593,225.697c-11.942,7.871-31.745,7.262-40.3-6.986c-7.764-12.93-9.478-31.775,0-36.908 c9.478-5.134,47.131-8.646,53.688,3.518C242.214,195.028,235.536,217.826,223.593,225.697z"></path>
		</g>
		<g class="hexatar-eyeglasses-left">
			<path class="col-obj" style="fill: rgb(33, 33, 33);" d="M349.81,179.832c0,0-10.249-0.616-13.76-2.419 c-8.656-4.445-20.149-5.008-29.657-5.375c-12.852-0.495-25.874,0.479-37.045,7.358c-2.839,1.748-9.826,4.625-13.348,4.625v10.5 c0,0,7.437-1.154,11.472,8.565c3.694,10.605,7.94,20.506,17.652,26.986c11.134,7.429,27.426,7.264,39.061,1.166 c15.022-7.872,17.277-23.705,19.299-38.818c2.107-0.413,4.215-0.827,6.322-1.24C351.707,187.916,351.815,181.101,349.81,179.832z M328.172,218.684c-8.491,14.223-28.065,14.83-39.918,6.973c-11.852-7.857-18.48-30.612-13.287-40.302 c6.508-12.143,43.798-8.637,53.205-3.512C337.579,186.968,335.877,205.776,328.172,218.684z M348.295,187.696h-3.123 c-0.387,0-0.704-0.317-0.704-0.704c0-0.387,0.317-0.704,0.704-0.704h3.123c0.387,0,0.704,0.317,0.704,0.704 C348.999,187.379,348.682,187.696,348.295,187.696z M348.295,183.297h-3.123c-0.387,0-0.704-0.317-0.704-0.704 s0.317-0.704,0.704-0.704h3.123c0.387,0,0.704,0.317,0.704,0.704S348.682,183.297,348.295,183.297z"></path>
			<path class="shadow-obj" style="opacity: 0.4; fill: rgb(7, 7, 7);" d="M349.81,179.832c0,0-10.249-0.616-13.76-2.419 c-8.656-4.445-20.149-5.008-29.657-5.375c-12.852-0.495-25.874,0.479-37.045,7.358c-2.839,1.748-9.826,4.625-13.348,4.625v10.5 c0,0,7.437-1.154,11.472,8.565c3.994,11.23,7.94,20.506,17.652,26.986c11.134,7.429,27.426,7.264,39.061,1.166 c15.022-7.872,17.277-23.705,19.299-38.818c2.107-0.413,4.215-0.827,6.322-1.24C351.707,187.916,351.815,181.101,349.81,179.832z M328.172,218.684c-8.491,14.223-28.065,14.83-39.918,6.973c-11.852-7.857-18.48-30.612-13.287-40.302 c6.508-12.143,43.798-8.637,53.205-3.512C337.579,186.968,335.877,205.776,328.172,218.684z M348.295,187.696h-3.123 c-0.387,0-0.704-0.317-0.704-0.704c0-0.387,0.317-0.704,0.704-0.704h3.123c0.387,0,0.704,0.317,0.704,0.704 C348.999,187.379,348.682,187.696,348.295,187.696z M348.295,183.297h-3.123c-0.387,0-0.704-0.317-0.704-0.704 s0.317-0.704,0.704-0.704h3.123c0.387,0,0.704,0.317,0.704,0.704S348.682,183.297,348.295,183.297z"></path>
		</g>
	</g></g>
	</g>
	<desc>Avatar generated from Hexatar.com - created with Snap</desc><text transform="matrix(1 0 0 1 0 528)" font-size="12">Avatar generated from Hexatar.com</text></svg>